<mxfile host="Electron" modified="2023-05-22T19:02:28.526Z" agent="Mozilla/5.0 (Windows NT 10.0; Win64; x64) AppleWebKit/537.36 (KHTML, like Gecko) draw.io/21.2.8 Chrome/112.0.5615.165 Electron/24.2.0 Safari/537.36" etag="PTSxQ_eampv-G7MAgL96" version="21.2.8" type="device">
  <diagram name="Page-1" id="Inq1Hw6wfs_KIvEQWjql">
    <mxGraphModel dx="1036" dy="605" grid="1" gridSize="10" guides="1" tooltips="1" connect="1" arrows="1" fold="1" page="1" pageScale="1" pageWidth="850" pageHeight="1100" math="0" shadow="0">
      <root>
        <mxCell id="0" />
        <mxCell id="1" parent="0" />
        <mxCell id="gyXMwO3ofP4Fgjw1sUbA-50" value="" style="edgeStyle=orthogonalEdgeStyle;rounded=0;orthogonalLoop=1;jettySize=auto;html=1;" parent="1" source="gyXMwO3ofP4Fgjw1sUbA-2" edge="1">
          <mxGeometry relative="1" as="geometry">
            <mxPoint x="252" y="339" as="targetPoint" />
          </mxGeometry>
        </mxCell>
        <mxCell id="gyXMwO3ofP4Fgjw1sUbA-2" value="" style="shape=orEllipse;perimeter=ellipsePerimeter;whiteSpace=wrap;html=1;backgroundOutline=1;" parent="1" vertex="1">
          <mxGeometry x="212" y="369" width="80" height="80" as="geometry" />
        </mxCell>
        <mxCell id="gyXMwO3ofP4Fgjw1sUbA-42" value="" style="edgeStyle=orthogonalEdgeStyle;rounded=0;orthogonalLoop=1;jettySize=auto;html=1;" parent="1" source="gyXMwO3ofP4Fgjw1sUbA-8" target="gyXMwO3ofP4Fgjw1sUbA-4" edge="1">
          <mxGeometry relative="1" as="geometry" />
        </mxCell>
        <mxCell id="gyXMwO3ofP4Fgjw1sUbA-8" value="&lt;font face=&quot;Times New Roman&quot; style=&quot;font-size: 24px;&quot;&gt;&lt;i&gt;x&lt;/i&gt;&lt;sub&gt;1&lt;/sub&gt;&lt;/font&gt;" style="text;html=1;strokeColor=none;fillColor=none;align=center;verticalAlign=middle;whiteSpace=wrap;rounded=0;" parent="1" vertex="1">
          <mxGeometry x="35" y="599" width="30" height="30" as="geometry" />
        </mxCell>
        <mxCell id="gyXMwO3ofP4Fgjw1sUbA-46" value="" style="edgeStyle=orthogonalEdgeStyle;rounded=0;orthogonalLoop=1;jettySize=auto;html=1;" parent="1" source="gyXMwO3ofP4Fgjw1sUbA-10" target="gyXMwO3ofP4Fgjw1sUbA-40" edge="1">
          <mxGeometry relative="1" as="geometry" />
        </mxCell>
        <mxCell id="gyXMwO3ofP4Fgjw1sUbA-10" value="&lt;font face=&quot;Times New Roman&quot; style=&quot;font-size: 24px;&quot;&gt;&lt;i&gt;x&lt;/i&gt;&lt;sub&gt;1&lt;/sub&gt;&lt;/font&gt;" style="text;html=1;strokeColor=none;fillColor=none;align=center;verticalAlign=middle;whiteSpace=wrap;rounded=0;" parent="1" vertex="1">
          <mxGeometry x="287" y="599" width="30" height="30" as="geometry" />
        </mxCell>
        <mxCell id="gyXMwO3ofP4Fgjw1sUbA-13" value="&lt;font face=&quot;Times New Roman&quot; style=&quot;font-size: 24px;&quot;&gt;w&lt;sub&gt;1&lt;/sub&gt;&lt;/font&gt;" style="text;html=1;strokeColor=none;fillColor=none;align=center;verticalAlign=middle;whiteSpace=wrap;rounded=0;" parent="1" vertex="1">
          <mxGeometry x="162" y="449" width="60" height="30" as="geometry" />
        </mxCell>
        <mxCell id="gyXMwO3ofP4Fgjw1sUbA-14" value="&lt;font face=&quot;Times New Roman&quot; style=&quot;font-size: 24px;&quot;&gt;w&lt;sub&gt;2&lt;/sub&gt;&lt;/font&gt;" style="text;html=1;strokeColor=none;fillColor=none;align=center;verticalAlign=middle;whiteSpace=wrap;rounded=0;" parent="1" vertex="1">
          <mxGeometry x="272" y="449" width="60" height="30" as="geometry" />
        </mxCell>
        <mxCell id="gyXMwO3ofP4Fgjw1sUbA-17" value="" style="group" parent="1" vertex="1" connectable="0">
          <mxGeometry x="10" y="489" width="80" height="80" as="geometry" />
        </mxCell>
        <mxCell id="gyXMwO3ofP4Fgjw1sUbA-4" value="" style="ellipse;whiteSpace=wrap;html=1;aspect=fixed;" parent="gyXMwO3ofP4Fgjw1sUbA-17" vertex="1">
          <mxGeometry width="80" height="80" as="geometry" />
        </mxCell>
        <mxCell id="gyXMwO3ofP4Fgjw1sUbA-12" value="" style="endArrow=none;html=1;rounded=0;edgeStyle=orthogonalEdgeStyle;curved=1;" parent="gyXMwO3ofP4Fgjw1sUbA-17" edge="1">
          <mxGeometry width="50" height="50" relative="1" as="geometry">
            <mxPoint x="55" y="55" as="sourcePoint" />
            <mxPoint x="25" y="55" as="targetPoint" />
            <Array as="points">
              <mxPoint x="45" y="55" />
              <mxPoint x="45" y="25" />
              <mxPoint x="35" y="25" />
              <mxPoint x="35" y="55" />
            </Array>
          </mxGeometry>
        </mxCell>
        <mxCell id="gyXMwO3ofP4Fgjw1sUbA-45" value="" style="edgeStyle=orthogonalEdgeStyle;rounded=0;orthogonalLoop=1;jettySize=auto;html=1;" parent="1" source="gyXMwO3ofP4Fgjw1sUbA-34" target="gyXMwO3ofP4Fgjw1sUbA-37" edge="1">
          <mxGeometry relative="1" as="geometry" />
        </mxCell>
        <mxCell id="gyXMwO3ofP4Fgjw1sUbA-34" value="&lt;font face=&quot;Times New Roman&quot; style=&quot;font-size: 24px;&quot;&gt;&lt;i&gt;x&lt;/i&gt;&lt;sub&gt;1&lt;/sub&gt;&lt;/font&gt;" style="text;html=1;strokeColor=none;fillColor=none;align=center;verticalAlign=middle;whiteSpace=wrap;rounded=0;" parent="1" vertex="1">
          <mxGeometry x="177" y="599" width="30" height="30" as="geometry" />
        </mxCell>
        <mxCell id="gyXMwO3ofP4Fgjw1sUbA-36" value="" style="group" parent="1" vertex="1" connectable="0">
          <mxGeometry x="152" y="489" width="80" height="80" as="geometry" />
        </mxCell>
        <mxCell id="gyXMwO3ofP4Fgjw1sUbA-37" value="" style="ellipse;whiteSpace=wrap;html=1;aspect=fixed;" parent="gyXMwO3ofP4Fgjw1sUbA-36" vertex="1">
          <mxGeometry width="80" height="80" as="geometry" />
        </mxCell>
        <mxCell id="gyXMwO3ofP4Fgjw1sUbA-38" value="" style="endArrow=none;html=1;rounded=0;edgeStyle=orthogonalEdgeStyle;curved=1;" parent="gyXMwO3ofP4Fgjw1sUbA-36" edge="1">
          <mxGeometry width="50" height="50" relative="1" as="geometry">
            <mxPoint x="55" y="55" as="sourcePoint" />
            <mxPoint x="25" y="55" as="targetPoint" />
            <Array as="points">
              <mxPoint x="45" y="55" />
              <mxPoint x="45" y="25" />
              <mxPoint x="35" y="25" />
              <mxPoint x="35" y="55" />
            </Array>
          </mxGeometry>
        </mxCell>
        <mxCell id="gyXMwO3ofP4Fgjw1sUbA-39" value="" style="group" parent="1" vertex="1" connectable="0">
          <mxGeometry x="262" y="489" width="80" height="80" as="geometry" />
        </mxCell>
        <mxCell id="gyXMwO3ofP4Fgjw1sUbA-40" value="" style="ellipse;whiteSpace=wrap;html=1;aspect=fixed;" parent="gyXMwO3ofP4Fgjw1sUbA-39" vertex="1">
          <mxGeometry width="80" height="80" as="geometry" />
        </mxCell>
        <mxCell id="gyXMwO3ofP4Fgjw1sUbA-41" value="" style="endArrow=none;html=1;rounded=0;edgeStyle=orthogonalEdgeStyle;curved=1;" parent="gyXMwO3ofP4Fgjw1sUbA-39" edge="1">
          <mxGeometry width="50" height="50" relative="1" as="geometry">
            <mxPoint x="55" y="55" as="sourcePoint" />
            <mxPoint x="25" y="55" as="targetPoint" />
            <Array as="points">
              <mxPoint x="45" y="55" />
              <mxPoint x="45" y="25" />
              <mxPoint x="35" y="25" />
              <mxPoint x="35" y="55" />
            </Array>
          </mxGeometry>
        </mxCell>
        <mxCell id="gyXMwO3ofP4Fgjw1sUbA-44" value="" style="edgeStyle=orthogonalEdgeStyle;rounded=0;orthogonalLoop=1;jettySize=auto;html=1;" parent="1" source="gyXMwO3ofP4Fgjw1sUbA-4" edge="1">
          <mxGeometry relative="1" as="geometry">
            <mxPoint x="50" y="459" as="targetPoint" />
          </mxGeometry>
        </mxCell>
        <mxCell id="gyXMwO3ofP4Fgjw1sUbA-47" value="" style="rounded=0;orthogonalLoop=1;jettySize=auto;html=1;" parent="1" source="gyXMwO3ofP4Fgjw1sUbA-37" target="gyXMwO3ofP4Fgjw1sUbA-2" edge="1">
          <mxGeometry relative="1" as="geometry" />
        </mxCell>
        <mxCell id="gyXMwO3ofP4Fgjw1sUbA-48" value="" style="rounded=0;orthogonalLoop=1;jettySize=auto;html=1;" parent="1" source="gyXMwO3ofP4Fgjw1sUbA-40" target="gyXMwO3ofP4Fgjw1sUbA-2" edge="1">
          <mxGeometry relative="1" as="geometry" />
        </mxCell>
        <mxCell id="gyXMwO3ofP4Fgjw1sUbA-67" value="" style="edgeStyle=orthogonalEdgeStyle;rounded=0;orthogonalLoop=1;jettySize=auto;html=1;" parent="1" edge="1">
          <mxGeometry relative="1" as="geometry">
            <mxPoint x="500" y="339" as="targetPoint" />
            <mxPoint x="500" y="369" as="sourcePoint" />
          </mxGeometry>
        </mxCell>
        <mxCell id="gyXMwO3ofP4Fgjw1sUbA-69" value="" style="edgeStyle=orthogonalEdgeStyle;rounded=0;orthogonalLoop=1;jettySize=auto;html=1;" parent="1" source="gyXMwO3ofP4Fgjw1sUbA-70" target="gyXMwO3ofP4Fgjw1sUbA-79" edge="1">
          <mxGeometry relative="1" as="geometry" />
        </mxCell>
        <mxCell id="gyXMwO3ofP4Fgjw1sUbA-70" value="&lt;font face=&quot;Times New Roman&quot; style=&quot;font-size: 24px;&quot;&gt;&lt;i&gt;x&lt;/i&gt;&lt;sub&gt;2&lt;/sub&gt;&lt;/font&gt;" style="text;html=1;strokeColor=none;fillColor=none;align=center;verticalAlign=middle;whiteSpace=wrap;rounded=0;" parent="1" vertex="1">
          <mxGeometry x="535" y="599" width="30" height="30" as="geometry" />
        </mxCell>
        <mxCell id="gyXMwO3ofP4Fgjw1sUbA-73" value="" style="edgeStyle=orthogonalEdgeStyle;rounded=0;orthogonalLoop=1;jettySize=auto;html=1;" parent="1" source="gyXMwO3ofP4Fgjw1sUbA-74" target="gyXMwO3ofP4Fgjw1sUbA-76" edge="1">
          <mxGeometry relative="1" as="geometry" />
        </mxCell>
        <mxCell id="gyXMwO3ofP4Fgjw1sUbA-74" value="&lt;font face=&quot;Times New Roman&quot; style=&quot;font-size: 24px;&quot;&gt;&lt;i&gt;x&lt;/i&gt;&lt;sub&gt;1&lt;/sub&gt;&lt;/font&gt;" style="text;html=1;strokeColor=none;fillColor=none;align=center;verticalAlign=middle;whiteSpace=wrap;rounded=0;" parent="1" vertex="1">
          <mxGeometry x="425" y="599" width="30" height="30" as="geometry" />
        </mxCell>
        <mxCell id="gyXMwO3ofP4Fgjw1sUbA-75" value="" style="group" parent="1" vertex="1" connectable="0">
          <mxGeometry x="400" y="489" width="80" height="80" as="geometry" />
        </mxCell>
        <mxCell id="gyXMwO3ofP4Fgjw1sUbA-76" value="" style="ellipse;whiteSpace=wrap;html=1;aspect=fixed;" parent="gyXMwO3ofP4Fgjw1sUbA-75" vertex="1">
          <mxGeometry width="80" height="80" as="geometry" />
        </mxCell>
        <mxCell id="gyXMwO3ofP4Fgjw1sUbA-77" value="" style="endArrow=none;html=1;rounded=0;edgeStyle=orthogonalEdgeStyle;curved=1;" parent="gyXMwO3ofP4Fgjw1sUbA-75" edge="1">
          <mxGeometry width="50" height="50" relative="1" as="geometry">
            <mxPoint x="55" y="55" as="sourcePoint" />
            <mxPoint x="25" y="55" as="targetPoint" />
            <Array as="points">
              <mxPoint x="45" y="55" />
              <mxPoint x="45" y="25" />
              <mxPoint x="35" y="25" />
              <mxPoint x="35" y="55" />
            </Array>
          </mxGeometry>
        </mxCell>
        <mxCell id="gyXMwO3ofP4Fgjw1sUbA-78" value="" style="group" parent="1" vertex="1" connectable="0">
          <mxGeometry x="510" y="489" width="80" height="80" as="geometry" />
        </mxCell>
        <mxCell id="gyXMwO3ofP4Fgjw1sUbA-79" value="" style="ellipse;whiteSpace=wrap;html=1;aspect=fixed;" parent="gyXMwO3ofP4Fgjw1sUbA-78" vertex="1">
          <mxGeometry width="80" height="80" as="geometry" />
        </mxCell>
        <mxCell id="gyXMwO3ofP4Fgjw1sUbA-80" value="" style="endArrow=none;html=1;rounded=0;edgeStyle=orthogonalEdgeStyle;curved=1;" parent="gyXMwO3ofP4Fgjw1sUbA-78" edge="1">
          <mxGeometry width="50" height="50" relative="1" as="geometry">
            <mxPoint x="55" y="55" as="sourcePoint" />
            <mxPoint x="25" y="55" as="targetPoint" />
            <Array as="points">
              <mxPoint x="45" y="55" />
              <mxPoint x="45" y="25" />
              <mxPoint x="35" y="25" />
              <mxPoint x="35" y="55" />
            </Array>
          </mxGeometry>
        </mxCell>
        <mxCell id="gyXMwO3ofP4Fgjw1sUbA-81" value="" style="rounded=0;orthogonalLoop=1;jettySize=auto;html=1;" parent="1" source="gyXMwO3ofP4Fgjw1sUbA-76" edge="1">
          <mxGeometry relative="1" as="geometry">
            <mxPoint x="482.1114561800016" y="444.7770876399968" as="targetPoint" />
          </mxGeometry>
        </mxCell>
        <mxCell id="gyXMwO3ofP4Fgjw1sUbA-82" value="" style="rounded=0;orthogonalLoop=1;jettySize=auto;html=1;" parent="1" source="gyXMwO3ofP4Fgjw1sUbA-79" edge="1">
          <mxGeometry relative="1" as="geometry">
            <mxPoint x="515.3846153846155" y="445.92307692307713" as="targetPoint" />
          </mxGeometry>
        </mxCell>
        <mxCell id="gyXMwO3ofP4Fgjw1sUbA-83" value="" style="shape=sumEllipse;perimeter=ellipsePerimeter;whiteSpace=wrap;html=1;backgroundOutline=1;" parent="1" vertex="1">
          <mxGeometry x="460" y="369" width="80" height="80" as="geometry" />
        </mxCell>
        <mxCell id="gyXMwO3ofP4Fgjw1sUbA-85" value="" style="edgeStyle=orthogonalEdgeStyle;rounded=0;orthogonalLoop=1;jettySize=auto;html=1;" parent="1" source="gyXMwO3ofP4Fgjw1sUbA-86" target="gyXMwO3ofP4Fgjw1sUbA-93" edge="1">
          <mxGeometry relative="1" as="geometry" />
        </mxCell>
        <mxCell id="gyXMwO3ofP4Fgjw1sUbA-86" value="&lt;font face=&quot;Times New Roman&quot; style=&quot;font-size: 24px;&quot;&gt;&lt;i&gt;x&lt;/i&gt;&lt;sub&gt;2&lt;/sub&gt;&lt;/font&gt;" style="text;html=1;strokeColor=none;fillColor=none;align=center;verticalAlign=middle;whiteSpace=wrap;rounded=0;" parent="1" vertex="1">
          <mxGeometry x="785" y="599" width="30" height="30" as="geometry" />
        </mxCell>
        <mxCell id="gyXMwO3ofP4Fgjw1sUbA-87" value="" style="edgeStyle=orthogonalEdgeStyle;rounded=0;orthogonalLoop=1;jettySize=auto;html=1;" parent="1" source="gyXMwO3ofP4Fgjw1sUbA-88" target="gyXMwO3ofP4Fgjw1sUbA-90" edge="1">
          <mxGeometry relative="1" as="geometry" />
        </mxCell>
        <mxCell id="gyXMwO3ofP4Fgjw1sUbA-88" value="&lt;font face=&quot;Times New Roman&quot; style=&quot;font-size: 24px;&quot;&gt;&lt;i&gt;x&lt;/i&gt;&lt;sub&gt;1&lt;/sub&gt;&lt;/font&gt;" style="text;html=1;strokeColor=none;fillColor=none;align=center;verticalAlign=middle;whiteSpace=wrap;rounded=0;" parent="1" vertex="1">
          <mxGeometry x="675" y="599" width="30" height="30" as="geometry" />
        </mxCell>
        <mxCell id="gyXMwO3ofP4Fgjw1sUbA-89" value="" style="group" parent="1" vertex="1" connectable="0">
          <mxGeometry x="650" y="489" width="80" height="80" as="geometry" />
        </mxCell>
        <mxCell id="gyXMwO3ofP4Fgjw1sUbA-90" value="" style="ellipse;whiteSpace=wrap;html=1;aspect=fixed;" parent="gyXMwO3ofP4Fgjw1sUbA-89" vertex="1">
          <mxGeometry width="80" height="80" as="geometry" />
        </mxCell>
        <mxCell id="gyXMwO3ofP4Fgjw1sUbA-91" value="" style="endArrow=none;html=1;rounded=0;edgeStyle=orthogonalEdgeStyle;curved=1;" parent="gyXMwO3ofP4Fgjw1sUbA-89" edge="1">
          <mxGeometry width="50" height="50" relative="1" as="geometry">
            <mxPoint x="55" y="55" as="sourcePoint" />
            <mxPoint x="25" y="55" as="targetPoint" />
            <Array as="points">
              <mxPoint x="45" y="55" />
              <mxPoint x="45" y="25" />
              <mxPoint x="35" y="25" />
              <mxPoint x="35" y="55" />
            </Array>
          </mxGeometry>
        </mxCell>
        <mxCell id="gyXMwO3ofP4Fgjw1sUbA-92" value="" style="group" parent="1" vertex="1" connectable="0">
          <mxGeometry x="760" y="489" width="80" height="80" as="geometry" />
        </mxCell>
        <mxCell id="gyXMwO3ofP4Fgjw1sUbA-93" value="" style="ellipse;whiteSpace=wrap;html=1;aspect=fixed;" parent="gyXMwO3ofP4Fgjw1sUbA-92" vertex="1">
          <mxGeometry width="80" height="80" as="geometry" />
        </mxCell>
        <mxCell id="gyXMwO3ofP4Fgjw1sUbA-94" value="" style="endArrow=none;html=1;rounded=0;edgeStyle=orthogonalEdgeStyle;curved=1;" parent="gyXMwO3ofP4Fgjw1sUbA-92" edge="1">
          <mxGeometry width="50" height="50" relative="1" as="geometry">
            <mxPoint x="55" y="55" as="sourcePoint" />
            <mxPoint x="25" y="55" as="targetPoint" />
            <Array as="points">
              <mxPoint x="45" y="55" />
              <mxPoint x="45" y="25" />
              <mxPoint x="35" y="25" />
              <mxPoint x="35" y="55" />
            </Array>
          </mxGeometry>
        </mxCell>
        <mxCell id="gyXMwO3ofP4Fgjw1sUbA-95" value="" style="rounded=0;orthogonalLoop=1;jettySize=auto;html=1;" parent="1" source="gyXMwO3ofP4Fgjw1sUbA-90" edge="1">
          <mxGeometry relative="1" as="geometry">
            <mxPoint x="732.1114561800016" y="444.7770876399968" as="targetPoint" />
          </mxGeometry>
        </mxCell>
        <mxCell id="gyXMwO3ofP4Fgjw1sUbA-96" value="" style="rounded=0;orthogonalLoop=1;jettySize=auto;html=1;" parent="1" source="gyXMwO3ofP4Fgjw1sUbA-93" edge="1">
          <mxGeometry relative="1" as="geometry">
            <mxPoint x="765.3846153846155" y="445.92307692307713" as="targetPoint" />
          </mxGeometry>
        </mxCell>
        <mxCell id="gyXMwO3ofP4Fgjw1sUbA-114" value="" style="rounded=0;orthogonalLoop=1;jettySize=auto;html=1;entryX=0;entryY=1;entryDx=0;entryDy=0;" parent="1" source="gyXMwO3ofP4Fgjw1sUbA-97" target="gyXMwO3ofP4Fgjw1sUbA-112" edge="1">
          <mxGeometry relative="1" as="geometry">
            <mxPoint x="750" y="249" as="targetPoint" />
          </mxGeometry>
        </mxCell>
        <mxCell id="gyXMwO3ofP4Fgjw1sUbA-97" value="" style="shape=sumEllipse;perimeter=ellipsePerimeter;whiteSpace=wrap;html=1;backgroundOutline=1;" parent="1" vertex="1">
          <mxGeometry x="710" y="369" width="80" height="80" as="geometry" />
        </mxCell>
        <mxCell id="gyXMwO3ofP4Fgjw1sUbA-99" value="" style="edgeStyle=orthogonalEdgeStyle;rounded=0;orthogonalLoop=1;jettySize=auto;html=1;" parent="1" source="gyXMwO3ofP4Fgjw1sUbA-100" target="gyXMwO3ofP4Fgjw1sUbA-107" edge="1">
          <mxGeometry relative="1" as="geometry" />
        </mxCell>
        <mxCell id="gyXMwO3ofP4Fgjw1sUbA-100" value="&lt;font face=&quot;Times New Roman&quot; style=&quot;font-size: 24px;&quot;&gt;&lt;i&gt;x&lt;/i&gt;&lt;sub&gt;2&lt;/sub&gt;&lt;/font&gt;" style="text;html=1;strokeColor=none;fillColor=none;align=center;verticalAlign=middle;whiteSpace=wrap;rounded=0;" parent="1" vertex="1">
          <mxGeometry x="1005" y="599" width="30" height="30" as="geometry" />
        </mxCell>
        <mxCell id="gyXMwO3ofP4Fgjw1sUbA-101" value="" style="edgeStyle=orthogonalEdgeStyle;rounded=0;orthogonalLoop=1;jettySize=auto;html=1;" parent="1" source="gyXMwO3ofP4Fgjw1sUbA-102" target="gyXMwO3ofP4Fgjw1sUbA-104" edge="1">
          <mxGeometry relative="1" as="geometry" />
        </mxCell>
        <mxCell id="gyXMwO3ofP4Fgjw1sUbA-102" value="&lt;font face=&quot;Times New Roman&quot; style=&quot;font-size: 24px;&quot;&gt;&lt;i&gt;x&lt;/i&gt;&lt;sub&gt;1&lt;/sub&gt;&lt;/font&gt;" style="text;html=1;strokeColor=none;fillColor=none;align=center;verticalAlign=middle;whiteSpace=wrap;rounded=0;" parent="1" vertex="1">
          <mxGeometry x="895" y="599" width="30" height="30" as="geometry" />
        </mxCell>
        <mxCell id="gyXMwO3ofP4Fgjw1sUbA-103" value="" style="group" parent="1" vertex="1" connectable="0">
          <mxGeometry x="870" y="489" width="80" height="80" as="geometry" />
        </mxCell>
        <mxCell id="gyXMwO3ofP4Fgjw1sUbA-104" value="" style="ellipse;whiteSpace=wrap;html=1;aspect=fixed;" parent="gyXMwO3ofP4Fgjw1sUbA-103" vertex="1">
          <mxGeometry width="80" height="80" as="geometry" />
        </mxCell>
        <mxCell id="gyXMwO3ofP4Fgjw1sUbA-105" value="" style="endArrow=none;html=1;rounded=0;edgeStyle=orthogonalEdgeStyle;curved=1;" parent="gyXMwO3ofP4Fgjw1sUbA-103" edge="1">
          <mxGeometry width="50" height="50" relative="1" as="geometry">
            <mxPoint x="55" y="55" as="sourcePoint" />
            <mxPoint x="25" y="55" as="targetPoint" />
            <Array as="points">
              <mxPoint x="45" y="55" />
              <mxPoint x="45" y="25" />
              <mxPoint x="35" y="25" />
              <mxPoint x="35" y="55" />
            </Array>
          </mxGeometry>
        </mxCell>
        <mxCell id="gyXMwO3ofP4Fgjw1sUbA-106" value="" style="group" parent="1" vertex="1" connectable="0">
          <mxGeometry x="980" y="489" width="80" height="80" as="geometry" />
        </mxCell>
        <mxCell id="gyXMwO3ofP4Fgjw1sUbA-107" value="" style="ellipse;whiteSpace=wrap;html=1;aspect=fixed;" parent="gyXMwO3ofP4Fgjw1sUbA-106" vertex="1">
          <mxGeometry width="80" height="80" as="geometry" />
        </mxCell>
        <mxCell id="gyXMwO3ofP4Fgjw1sUbA-108" value="" style="endArrow=none;html=1;rounded=0;edgeStyle=orthogonalEdgeStyle;curved=1;" parent="gyXMwO3ofP4Fgjw1sUbA-106" edge="1">
          <mxGeometry width="50" height="50" relative="1" as="geometry">
            <mxPoint x="55" y="55" as="sourcePoint" />
            <mxPoint x="25" y="55" as="targetPoint" />
            <Array as="points">
              <mxPoint x="45" y="55" />
              <mxPoint x="45" y="25" />
              <mxPoint x="35" y="25" />
              <mxPoint x="35" y="55" />
            </Array>
          </mxGeometry>
        </mxCell>
        <mxCell id="gyXMwO3ofP4Fgjw1sUbA-109" value="" style="rounded=0;orthogonalLoop=1;jettySize=auto;html=1;" parent="1" source="gyXMwO3ofP4Fgjw1sUbA-104" edge="1">
          <mxGeometry relative="1" as="geometry">
            <mxPoint x="952.1114561800016" y="444.7770876399968" as="targetPoint" />
          </mxGeometry>
        </mxCell>
        <mxCell id="gyXMwO3ofP4Fgjw1sUbA-110" value="" style="rounded=0;orthogonalLoop=1;jettySize=auto;html=1;" parent="1" source="gyXMwO3ofP4Fgjw1sUbA-107" edge="1">
          <mxGeometry relative="1" as="geometry">
            <mxPoint x="985.3846153846155" y="445.92307692307713" as="targetPoint" />
          </mxGeometry>
        </mxCell>
        <mxCell id="gyXMwO3ofP4Fgjw1sUbA-118" value="" style="rounded=0;orthogonalLoop=1;jettySize=auto;html=1;entryX=1;entryY=1;entryDx=0;entryDy=0;" parent="1" source="gyXMwO3ofP4Fgjw1sUbA-111" target="gyXMwO3ofP4Fgjw1sUbA-112" edge="1">
          <mxGeometry relative="1" as="geometry">
            <mxPoint x="970" y="249" as="targetPoint" />
          </mxGeometry>
        </mxCell>
        <mxCell id="gyXMwO3ofP4Fgjw1sUbA-111" value="" style="shape=sumEllipse;perimeter=ellipsePerimeter;whiteSpace=wrap;html=1;backgroundOutline=1;" parent="1" vertex="1">
          <mxGeometry x="930" y="369" width="80" height="80" as="geometry" />
        </mxCell>
        <mxCell id="gyXMwO3ofP4Fgjw1sUbA-112" value="" style="shape=orEllipse;perimeter=ellipsePerimeter;whiteSpace=wrap;html=1;backgroundOutline=1;" parent="1" vertex="1">
          <mxGeometry x="820" y="249" width="80" height="80" as="geometry" />
        </mxCell>
        <mxCell id="gyXMwO3ofP4Fgjw1sUbA-225" value="" style="group" parent="1" vertex="1" connectable="0">
          <mxGeometry x="1089" width="610" height="629" as="geometry" />
        </mxCell>
        <mxCell id="gyXMwO3ofP4Fgjw1sUbA-120" value="&lt;font face=&quot;Times New Roman&quot; style=&quot;font-size: 24px;&quot;&gt;&lt;i&gt;x&lt;/i&gt;&lt;sub&gt;4&lt;/sub&gt;&lt;/font&gt;" style="text;html=1;strokeColor=none;fillColor=none;align=center;verticalAlign=middle;whiteSpace=wrap;rounded=0;" parent="gyXMwO3ofP4Fgjw1sUbA-225" vertex="1">
          <mxGeometry x="235" y="599" width="30" height="30" as="geometry" />
        </mxCell>
        <mxCell id="gyXMwO3ofP4Fgjw1sUbA-122" value="&lt;font face=&quot;Times New Roman&quot; style=&quot;&quot;&gt;&lt;span style=&quot;font-style: italic; font-size: 24px;&quot;&gt;x&lt;/span&gt;&lt;span style=&quot;font-size: 20px;&quot;&gt;&lt;sub&gt;3&lt;/sub&gt;&lt;/span&gt;&lt;/font&gt;" style="text;html=1;strokeColor=none;fillColor=none;align=center;verticalAlign=middle;whiteSpace=wrap;rounded=0;" parent="gyXMwO3ofP4Fgjw1sUbA-225" vertex="1">
          <mxGeometry x="125" y="599" width="30" height="30" as="geometry" />
        </mxCell>
        <mxCell id="gyXMwO3ofP4Fgjw1sUbA-123" value="" style="group" parent="gyXMwO3ofP4Fgjw1sUbA-225" vertex="1" connectable="0">
          <mxGeometry x="100" y="489" width="80" height="80" as="geometry" />
        </mxCell>
        <mxCell id="gyXMwO3ofP4Fgjw1sUbA-124" value="" style="ellipse;whiteSpace=wrap;html=1;aspect=fixed;" parent="gyXMwO3ofP4Fgjw1sUbA-123" vertex="1">
          <mxGeometry width="80" height="80" as="geometry" />
        </mxCell>
        <mxCell id="gyXMwO3ofP4Fgjw1sUbA-125" value="" style="endArrow=none;html=1;rounded=0;edgeStyle=orthogonalEdgeStyle;curved=1;" parent="gyXMwO3ofP4Fgjw1sUbA-123" edge="1">
          <mxGeometry width="50" height="50" relative="1" as="geometry">
            <mxPoint x="55" y="55" as="sourcePoint" />
            <mxPoint x="25" y="55" as="targetPoint" />
            <Array as="points">
              <mxPoint x="45" y="55" />
              <mxPoint x="45" y="25" />
              <mxPoint x="35" y="25" />
              <mxPoint x="35" y="55" />
            </Array>
          </mxGeometry>
        </mxCell>
        <mxCell id="gyXMwO3ofP4Fgjw1sUbA-121" value="" style="edgeStyle=orthogonalEdgeStyle;rounded=0;orthogonalLoop=1;jettySize=auto;html=1;" parent="gyXMwO3ofP4Fgjw1sUbA-225" source="gyXMwO3ofP4Fgjw1sUbA-122" target="gyXMwO3ofP4Fgjw1sUbA-124" edge="1">
          <mxGeometry relative="1" as="geometry" />
        </mxCell>
        <mxCell id="gyXMwO3ofP4Fgjw1sUbA-126" value="" style="group" parent="gyXMwO3ofP4Fgjw1sUbA-225" vertex="1" connectable="0">
          <mxGeometry x="210" y="489" width="80" height="80" as="geometry" />
        </mxCell>
        <mxCell id="gyXMwO3ofP4Fgjw1sUbA-127" value="" style="ellipse;whiteSpace=wrap;html=1;aspect=fixed;" parent="gyXMwO3ofP4Fgjw1sUbA-126" vertex="1">
          <mxGeometry width="80" height="80" as="geometry" />
        </mxCell>
        <mxCell id="gyXMwO3ofP4Fgjw1sUbA-128" value="" style="endArrow=none;html=1;rounded=0;edgeStyle=orthogonalEdgeStyle;curved=1;" parent="gyXMwO3ofP4Fgjw1sUbA-126" edge="1">
          <mxGeometry width="50" height="50" relative="1" as="geometry">
            <mxPoint x="55" y="55" as="sourcePoint" />
            <mxPoint x="25" y="55" as="targetPoint" />
            <Array as="points">
              <mxPoint x="45" y="55" />
              <mxPoint x="45" y="25" />
              <mxPoint x="35" y="25" />
              <mxPoint x="35" y="55" />
            </Array>
          </mxGeometry>
        </mxCell>
        <mxCell id="gyXMwO3ofP4Fgjw1sUbA-119" value="" style="edgeStyle=orthogonalEdgeStyle;rounded=0;orthogonalLoop=1;jettySize=auto;html=1;" parent="gyXMwO3ofP4Fgjw1sUbA-225" source="gyXMwO3ofP4Fgjw1sUbA-120" target="gyXMwO3ofP4Fgjw1sUbA-127" edge="1">
          <mxGeometry relative="1" as="geometry" />
        </mxCell>
        <mxCell id="gyXMwO3ofP4Fgjw1sUbA-132" value="" style="shape=sumEllipse;perimeter=ellipsePerimeter;whiteSpace=wrap;html=1;backgroundOutline=1;" parent="gyXMwO3ofP4Fgjw1sUbA-225" vertex="1">
          <mxGeometry x="100" y="369" width="80" height="80" as="geometry" />
        </mxCell>
        <mxCell id="gyXMwO3ofP4Fgjw1sUbA-134" value="&lt;font face=&quot;Times New Roman&quot; style=&quot;font-size: 24px;&quot;&gt;&lt;i&gt;x&lt;/i&gt;&lt;sub&gt;4&lt;/sub&gt;&lt;/font&gt;" style="text;html=1;strokeColor=none;fillColor=none;align=center;verticalAlign=middle;whiteSpace=wrap;rounded=0;" parent="gyXMwO3ofP4Fgjw1sUbA-225" vertex="1">
          <mxGeometry x="455" y="599" width="30" height="30" as="geometry" />
        </mxCell>
        <mxCell id="gyXMwO3ofP4Fgjw1sUbA-136" value="&lt;font face=&quot;Times New Roman&quot; style=&quot;font-size: 24px;&quot;&gt;&lt;i&gt;x&lt;/i&gt;&lt;sub&gt;3&lt;/sub&gt;&lt;/font&gt;" style="text;html=1;strokeColor=none;fillColor=none;align=center;verticalAlign=middle;whiteSpace=wrap;rounded=0;" parent="gyXMwO3ofP4Fgjw1sUbA-225" vertex="1">
          <mxGeometry x="345" y="599" width="30" height="30" as="geometry" />
        </mxCell>
        <mxCell id="gyXMwO3ofP4Fgjw1sUbA-137" value="" style="group" parent="gyXMwO3ofP4Fgjw1sUbA-225" vertex="1" connectable="0">
          <mxGeometry x="320" y="489" width="80" height="80" as="geometry" />
        </mxCell>
        <mxCell id="gyXMwO3ofP4Fgjw1sUbA-138" value="" style="ellipse;whiteSpace=wrap;html=1;aspect=fixed;" parent="gyXMwO3ofP4Fgjw1sUbA-137" vertex="1">
          <mxGeometry width="80" height="80" as="geometry" />
        </mxCell>
        <mxCell id="gyXMwO3ofP4Fgjw1sUbA-139" value="" style="endArrow=none;html=1;rounded=0;edgeStyle=orthogonalEdgeStyle;curved=1;" parent="gyXMwO3ofP4Fgjw1sUbA-137" edge="1">
          <mxGeometry width="50" height="50" relative="1" as="geometry">
            <mxPoint x="55" y="55" as="sourcePoint" />
            <mxPoint x="25" y="55" as="targetPoint" />
            <Array as="points">
              <mxPoint x="45" y="55" />
              <mxPoint x="45" y="25" />
              <mxPoint x="35" y="25" />
              <mxPoint x="35" y="55" />
            </Array>
          </mxGeometry>
        </mxCell>
        <mxCell id="gyXMwO3ofP4Fgjw1sUbA-135" value="" style="edgeStyle=orthogonalEdgeStyle;rounded=0;orthogonalLoop=1;jettySize=auto;html=1;" parent="gyXMwO3ofP4Fgjw1sUbA-225" source="gyXMwO3ofP4Fgjw1sUbA-136" target="gyXMwO3ofP4Fgjw1sUbA-138" edge="1">
          <mxGeometry relative="1" as="geometry" />
        </mxCell>
        <mxCell id="gyXMwO3ofP4Fgjw1sUbA-140" value="" style="group" parent="gyXMwO3ofP4Fgjw1sUbA-225" vertex="1" connectable="0">
          <mxGeometry x="430" y="489" width="80" height="80" as="geometry" />
        </mxCell>
        <mxCell id="gyXMwO3ofP4Fgjw1sUbA-141" value="" style="ellipse;whiteSpace=wrap;html=1;aspect=fixed;" parent="gyXMwO3ofP4Fgjw1sUbA-140" vertex="1">
          <mxGeometry width="80" height="80" as="geometry" />
        </mxCell>
        <mxCell id="gyXMwO3ofP4Fgjw1sUbA-142" value="" style="endArrow=none;html=1;rounded=0;edgeStyle=orthogonalEdgeStyle;curved=1;" parent="gyXMwO3ofP4Fgjw1sUbA-140" edge="1">
          <mxGeometry width="50" height="50" relative="1" as="geometry">
            <mxPoint x="55" y="55" as="sourcePoint" />
            <mxPoint x="25" y="55" as="targetPoint" />
            <Array as="points">
              <mxPoint x="45" y="55" />
              <mxPoint x="45" y="25" />
              <mxPoint x="35" y="25" />
              <mxPoint x="35" y="55" />
            </Array>
          </mxGeometry>
        </mxCell>
        <mxCell id="gyXMwO3ofP4Fgjw1sUbA-146" value="" style="shape=sumEllipse;perimeter=ellipsePerimeter;whiteSpace=wrap;html=1;backgroundOutline=1;" parent="gyXMwO3ofP4Fgjw1sUbA-225" vertex="1">
          <mxGeometry x="430" y="369" width="80" height="80" as="geometry" />
        </mxCell>
        <mxCell id="gyXMwO3ofP4Fgjw1sUbA-133" value="" style="edgeStyle=orthogonalEdgeStyle;rounded=0;orthogonalLoop=1;jettySize=auto;html=1;" parent="gyXMwO3ofP4Fgjw1sUbA-225" source="gyXMwO3ofP4Fgjw1sUbA-134" target="gyXMwO3ofP4Fgjw1sUbA-141" edge="1">
          <mxGeometry relative="1" as="geometry" />
        </mxCell>
        <mxCell id="gyXMwO3ofP4Fgjw1sUbA-147" value="" style="shape=orEllipse;perimeter=ellipsePerimeter;whiteSpace=wrap;html=1;backgroundOutline=1;" parent="gyXMwO3ofP4Fgjw1sUbA-225" vertex="1">
          <mxGeometry x="210" y="249" width="80" height="80" as="geometry" />
        </mxCell>
        <mxCell id="gyXMwO3ofP4Fgjw1sUbA-151" value="" style="edgeStyle=orthogonalEdgeStyle;rounded=0;orthogonalLoop=1;jettySize=auto;html=1;" parent="gyXMwO3ofP4Fgjw1sUbA-225" source="gyXMwO3ofP4Fgjw1sUbA-148" target="gyXMwO3ofP4Fgjw1sUbA-147" edge="1">
          <mxGeometry relative="1" as="geometry" />
        </mxCell>
        <mxCell id="gyXMwO3ofP4Fgjw1sUbA-148" value="" style="shape=sumEllipse;perimeter=ellipsePerimeter;whiteSpace=wrap;html=1;backgroundOutline=1;" parent="gyXMwO3ofP4Fgjw1sUbA-225" vertex="1">
          <mxGeometry x="210" y="369" width="80" height="80" as="geometry" />
        </mxCell>
        <mxCell id="gyXMwO3ofP4Fgjw1sUbA-149" value="" style="shape=sumEllipse;perimeter=ellipsePerimeter;whiteSpace=wrap;html=1;backgroundOutline=1;" parent="gyXMwO3ofP4Fgjw1sUbA-225" vertex="1">
          <mxGeometry x="320" y="369" width="80" height="80" as="geometry" />
        </mxCell>
        <mxCell id="gyXMwO3ofP4Fgjw1sUbA-150" value="" style="shape=orEllipse;perimeter=ellipsePerimeter;whiteSpace=wrap;html=1;backgroundOutline=1;" parent="gyXMwO3ofP4Fgjw1sUbA-225" vertex="1">
          <mxGeometry x="320" y="249" width="80" height="80" as="geometry" />
        </mxCell>
        <mxCell id="gyXMwO3ofP4Fgjw1sUbA-131" value="" style="rounded=0;orthogonalLoop=1;jettySize=auto;html=1;entryX=0;entryY=1;entryDx=0;entryDy=0;" parent="gyXMwO3ofP4Fgjw1sUbA-225" source="gyXMwO3ofP4Fgjw1sUbA-132" target="gyXMwO3ofP4Fgjw1sUbA-147" edge="1">
          <mxGeometry relative="1" as="geometry">
            <mxPoint x="200" y="249" as="targetPoint" />
          </mxGeometry>
        </mxCell>
        <mxCell id="gyXMwO3ofP4Fgjw1sUbA-155" value="" style="edgeStyle=orthogonalEdgeStyle;rounded=0;orthogonalLoop=1;jettySize=auto;html=1;" parent="gyXMwO3ofP4Fgjw1sUbA-225" source="gyXMwO3ofP4Fgjw1sUbA-141" target="gyXMwO3ofP4Fgjw1sUbA-146" edge="1">
          <mxGeometry relative="1" as="geometry" />
        </mxCell>
        <mxCell id="gyXMwO3ofP4Fgjw1sUbA-156" value="" style="edgeStyle=orthogonalEdgeStyle;rounded=0;orthogonalLoop=1;jettySize=auto;html=1;" parent="gyXMwO3ofP4Fgjw1sUbA-225" source="gyXMwO3ofP4Fgjw1sUbA-124" target="gyXMwO3ofP4Fgjw1sUbA-132" edge="1">
          <mxGeometry relative="1" as="geometry" />
        </mxCell>
        <mxCell id="gyXMwO3ofP4Fgjw1sUbA-157" value="" style="rounded=0;orthogonalLoop=1;jettySize=auto;html=1;entryX=1;entryY=1;entryDx=0;entryDy=0;" parent="gyXMwO3ofP4Fgjw1sUbA-225" source="gyXMwO3ofP4Fgjw1sUbA-127" target="gyXMwO3ofP4Fgjw1sUbA-132" edge="1">
          <mxGeometry relative="1" as="geometry" />
        </mxCell>
        <mxCell id="gyXMwO3ofP4Fgjw1sUbA-158" value="" style="edgeStyle=orthogonalEdgeStyle;rounded=0;orthogonalLoop=1;jettySize=auto;html=1;" parent="gyXMwO3ofP4Fgjw1sUbA-225" source="gyXMwO3ofP4Fgjw1sUbA-127" target="gyXMwO3ofP4Fgjw1sUbA-148" edge="1">
          <mxGeometry relative="1" as="geometry" />
        </mxCell>
        <mxCell id="gyXMwO3ofP4Fgjw1sUbA-154" value="" style="rounded=0;orthogonalLoop=1;jettySize=auto;html=1;entryX=1;entryY=1;entryDx=0;entryDy=0;" parent="gyXMwO3ofP4Fgjw1sUbA-225" source="gyXMwO3ofP4Fgjw1sUbA-146" target="gyXMwO3ofP4Fgjw1sUbA-150" edge="1">
          <mxGeometry relative="1" as="geometry">
            <mxPoint x="470" y="248.99999999999977" as="targetPoint" />
          </mxGeometry>
        </mxCell>
        <mxCell id="gyXMwO3ofP4Fgjw1sUbA-160" value="" style="rounded=0;orthogonalLoop=1;jettySize=auto;html=1;entryX=0;entryY=1;entryDx=0;entryDy=0;" parent="gyXMwO3ofP4Fgjw1sUbA-225" source="gyXMwO3ofP4Fgjw1sUbA-138" target="gyXMwO3ofP4Fgjw1sUbA-146" edge="1">
          <mxGeometry relative="1" as="geometry" />
        </mxCell>
        <mxCell id="gyXMwO3ofP4Fgjw1sUbA-152" value="" style="edgeStyle=orthogonalEdgeStyle;rounded=0;orthogonalLoop=1;jettySize=auto;html=1;" parent="gyXMwO3ofP4Fgjw1sUbA-225" source="gyXMwO3ofP4Fgjw1sUbA-149" target="gyXMwO3ofP4Fgjw1sUbA-150" edge="1">
          <mxGeometry relative="1" as="geometry" />
        </mxCell>
        <mxCell id="gyXMwO3ofP4Fgjw1sUbA-162" value="" style="rounded=0;orthogonalLoop=1;jettySize=auto;html=1;entryX=1;entryY=1;entryDx=0;entryDy=0;" parent="gyXMwO3ofP4Fgjw1sUbA-225" source="gyXMwO3ofP4Fgjw1sUbA-141" target="gyXMwO3ofP4Fgjw1sUbA-149" edge="1">
          <mxGeometry relative="1" as="geometry">
            <mxPoint x="630" y="529" as="targetPoint" />
          </mxGeometry>
        </mxCell>
        <mxCell id="gyXMwO3ofP4Fgjw1sUbA-164" value="" style="rounded=0;orthogonalLoop=1;jettySize=auto;html=1;entryX=0;entryY=1;entryDx=0;entryDy=0;" parent="gyXMwO3ofP4Fgjw1sUbA-225" source="gyXMwO3ofP4Fgjw1sUbA-124" target="gyXMwO3ofP4Fgjw1sUbA-149" edge="1">
          <mxGeometry relative="1" as="geometry">
            <mxPoint x="-20" y="529" as="targetPoint" />
          </mxGeometry>
        </mxCell>
        <mxCell id="gyXMwO3ofP4Fgjw1sUbA-165" value="" style="rounded=0;orthogonalLoop=1;jettySize=auto;html=1;entryX=1;entryY=1;entryDx=0;entryDy=0;" parent="gyXMwO3ofP4Fgjw1sUbA-225" source="gyXMwO3ofP4Fgjw1sUbA-138" target="gyXMwO3ofP4Fgjw1sUbA-148" edge="1">
          <mxGeometry relative="1" as="geometry" />
        </mxCell>
        <mxCell id="gyXMwO3ofP4Fgjw1sUbA-166" value="" style="shape=sumEllipse;perimeter=ellipsePerimeter;whiteSpace=wrap;html=1;backgroundOutline=1;" parent="gyXMwO3ofP4Fgjw1sUbA-225" vertex="1">
          <mxGeometry x="210" y="122" width="80" height="80" as="geometry" />
        </mxCell>
        <mxCell id="gyXMwO3ofP4Fgjw1sUbA-209" value="" style="edgeStyle=orthogonalEdgeStyle;rounded=0;orthogonalLoop=1;jettySize=auto;html=1;" parent="gyXMwO3ofP4Fgjw1sUbA-225" source="gyXMwO3ofP4Fgjw1sUbA-147" target="gyXMwO3ofP4Fgjw1sUbA-166" edge="1">
          <mxGeometry relative="1" as="geometry" />
        </mxCell>
        <mxCell id="gyXMwO3ofP4Fgjw1sUbA-167" value="" style="shape=sumEllipse;perimeter=ellipsePerimeter;whiteSpace=wrap;html=1;backgroundOutline=1;" parent="gyXMwO3ofP4Fgjw1sUbA-225" vertex="1">
          <mxGeometry x="320" y="122" width="80" height="80" as="geometry" />
        </mxCell>
        <mxCell id="gyXMwO3ofP4Fgjw1sUbA-210" value="" style="edgeStyle=orthogonalEdgeStyle;rounded=0;orthogonalLoop=1;jettySize=auto;html=1;" parent="gyXMwO3ofP4Fgjw1sUbA-225" source="gyXMwO3ofP4Fgjw1sUbA-150" target="gyXMwO3ofP4Fgjw1sUbA-167" edge="1">
          <mxGeometry relative="1" as="geometry" />
        </mxCell>
        <mxCell id="gyXMwO3ofP4Fgjw1sUbA-175" value="" style="group" parent="gyXMwO3ofP4Fgjw1sUbA-225" vertex="1" connectable="0">
          <mxGeometry x="462" y="249" width="80" height="80" as="geometry" />
        </mxCell>
        <mxCell id="gyXMwO3ofP4Fgjw1sUbA-176" value="" style="ellipse;whiteSpace=wrap;html=1;aspect=fixed;" parent="gyXMwO3ofP4Fgjw1sUbA-175" vertex="1">
          <mxGeometry width="80" height="80" as="geometry" />
        </mxCell>
        <mxCell id="gyXMwO3ofP4Fgjw1sUbA-177" value="" style="endArrow=none;html=1;rounded=0;edgeStyle=orthogonalEdgeStyle;curved=1;" parent="gyXMwO3ofP4Fgjw1sUbA-175" edge="1">
          <mxGeometry width="50" height="50" relative="1" as="geometry">
            <mxPoint x="55" y="55" as="sourcePoint" />
            <mxPoint x="25" y="55" as="targetPoint" />
            <Array as="points">
              <mxPoint x="45" y="55" />
              <mxPoint x="45" y="25" />
              <mxPoint x="35" y="25" />
              <mxPoint x="35" y="55" />
            </Array>
          </mxGeometry>
        </mxCell>
        <mxCell id="gyXMwO3ofP4Fgjw1sUbA-178" value="" style="group" parent="gyXMwO3ofP4Fgjw1sUbA-225" vertex="1" connectable="0">
          <mxGeometry x="462" y="129" width="80" height="80" as="geometry" />
        </mxCell>
        <mxCell id="gyXMwO3ofP4Fgjw1sUbA-179" value="" style="ellipse;whiteSpace=wrap;html=1;aspect=fixed;" parent="gyXMwO3ofP4Fgjw1sUbA-178" vertex="1">
          <mxGeometry y="-7" width="80" height="80" as="geometry" />
        </mxCell>
        <mxCell id="gyXMwO3ofP4Fgjw1sUbA-180" value="" style="endArrow=none;html=1;rounded=0;edgeStyle=orthogonalEdgeStyle;curved=1;" parent="gyXMwO3ofP4Fgjw1sUbA-178" edge="1">
          <mxGeometry width="50" height="50" relative="1" as="geometry">
            <mxPoint x="55" y="46" as="sourcePoint" />
            <mxPoint x="25" y="46" as="targetPoint" />
            <Array as="points">
              <mxPoint x="45" y="46" />
              <mxPoint x="45" y="16" />
              <mxPoint x="35" y="16" />
              <mxPoint x="35" y="46" />
            </Array>
          </mxGeometry>
        </mxCell>
        <mxCell id="gyXMwO3ofP4Fgjw1sUbA-200" value="" style="group" parent="gyXMwO3ofP4Fgjw1sUbA-225" vertex="1" connectable="0">
          <mxGeometry x="70" y="249" width="80" height="80" as="geometry" />
        </mxCell>
        <mxCell id="gyXMwO3ofP4Fgjw1sUbA-201" value="" style="ellipse;whiteSpace=wrap;html=1;aspect=fixed;" parent="gyXMwO3ofP4Fgjw1sUbA-200" vertex="1">
          <mxGeometry width="80" height="80" as="geometry" />
        </mxCell>
        <mxCell id="gyXMwO3ofP4Fgjw1sUbA-202" value="" style="endArrow=none;html=1;rounded=0;edgeStyle=orthogonalEdgeStyle;curved=1;" parent="gyXMwO3ofP4Fgjw1sUbA-200" edge="1">
          <mxGeometry width="50" height="50" relative="1" as="geometry">
            <mxPoint x="55" y="55" as="sourcePoint" />
            <mxPoint x="25" y="55" as="targetPoint" />
            <Array as="points">
              <mxPoint x="45" y="55" />
              <mxPoint x="45" y="25" />
              <mxPoint x="35" y="25" />
              <mxPoint x="35" y="55" />
            </Array>
          </mxGeometry>
        </mxCell>
        <mxCell id="gyXMwO3ofP4Fgjw1sUbA-203" value="" style="group" parent="gyXMwO3ofP4Fgjw1sUbA-225" vertex="1" connectable="0">
          <mxGeometry x="70" y="129" width="80" height="80" as="geometry" />
        </mxCell>
        <mxCell id="gyXMwO3ofP4Fgjw1sUbA-204" value="" style="ellipse;whiteSpace=wrap;html=1;aspect=fixed;" parent="gyXMwO3ofP4Fgjw1sUbA-203" vertex="1">
          <mxGeometry y="-7" width="80" height="80" as="geometry" />
        </mxCell>
        <mxCell id="gyXMwO3ofP4Fgjw1sUbA-205" value="" style="endArrow=none;html=1;rounded=0;edgeStyle=orthogonalEdgeStyle;curved=1;" parent="gyXMwO3ofP4Fgjw1sUbA-203" edge="1">
          <mxGeometry width="50" height="50" relative="1" as="geometry">
            <mxPoint x="55" y="49" as="sourcePoint" />
            <mxPoint x="25" y="49" as="targetPoint" />
            <Array as="points">
              <mxPoint x="45" y="49" />
              <mxPoint x="45" y="19" />
              <mxPoint x="35" y="19" />
              <mxPoint x="35" y="49" />
            </Array>
          </mxGeometry>
        </mxCell>
        <mxCell id="gyXMwO3ofP4Fgjw1sUbA-206" value="" style="shape=orEllipse;perimeter=ellipsePerimeter;whiteSpace=wrap;html=1;backgroundOutline=1;" parent="gyXMwO3ofP4Fgjw1sUbA-225" vertex="1">
          <mxGeometry x="265" width="80" height="80" as="geometry" />
        </mxCell>
        <mxCell id="gyXMwO3ofP4Fgjw1sUbA-211" value="" style="rounded=0;orthogonalLoop=1;jettySize=auto;html=1;entryX=1;entryY=1;entryDx=0;entryDy=0;" parent="gyXMwO3ofP4Fgjw1sUbA-225" source="gyXMwO3ofP4Fgjw1sUbA-176" target="gyXMwO3ofP4Fgjw1sUbA-167" edge="1">
          <mxGeometry relative="1" as="geometry" />
        </mxCell>
        <mxCell id="gyXMwO3ofP4Fgjw1sUbA-212" value="" style="edgeStyle=orthogonalEdgeStyle;rounded=0;orthogonalLoop=1;jettySize=auto;html=1;" parent="gyXMwO3ofP4Fgjw1sUbA-225" source="gyXMwO3ofP4Fgjw1sUbA-179" target="gyXMwO3ofP4Fgjw1sUbA-167" edge="1">
          <mxGeometry relative="1" as="geometry" />
        </mxCell>
        <mxCell id="gyXMwO3ofP4Fgjw1sUbA-213" value="" style="rounded=0;orthogonalLoop=1;jettySize=auto;html=1;entryX=0;entryY=1;entryDx=0;entryDy=0;" parent="gyXMwO3ofP4Fgjw1sUbA-225" source="gyXMwO3ofP4Fgjw1sUbA-201" target="gyXMwO3ofP4Fgjw1sUbA-166" edge="1">
          <mxGeometry relative="1" as="geometry" />
        </mxCell>
        <mxCell id="gyXMwO3ofP4Fgjw1sUbA-207" value="" style="rounded=0;orthogonalLoop=1;jettySize=auto;html=1;" parent="gyXMwO3ofP4Fgjw1sUbA-225" source="gyXMwO3ofP4Fgjw1sUbA-166" target="gyXMwO3ofP4Fgjw1sUbA-206" edge="1">
          <mxGeometry relative="1" as="geometry" />
        </mxCell>
        <mxCell id="gyXMwO3ofP4Fgjw1sUbA-214" value="" style="edgeStyle=orthogonalEdgeStyle;rounded=0;orthogonalLoop=1;jettySize=auto;html=1;" parent="gyXMwO3ofP4Fgjw1sUbA-225" source="gyXMwO3ofP4Fgjw1sUbA-204" target="gyXMwO3ofP4Fgjw1sUbA-166" edge="1">
          <mxGeometry relative="1" as="geometry" />
        </mxCell>
        <mxCell id="gyXMwO3ofP4Fgjw1sUbA-222" value="" style="edgeStyle=orthogonalEdgeStyle;rounded=0;orthogonalLoop=1;jettySize=auto;html=1;" parent="gyXMwO3ofP4Fgjw1sUbA-225" source="gyXMwO3ofP4Fgjw1sUbA-215" target="gyXMwO3ofP4Fgjw1sUbA-201" edge="1">
          <mxGeometry relative="1" as="geometry" />
        </mxCell>
        <mxCell id="gyXMwO3ofP4Fgjw1sUbA-215" value="&lt;font face=&quot;Times New Roman&quot; style=&quot;font-size: 24px;&quot;&gt;&lt;i&gt;x&lt;/i&gt;&lt;sub&gt;2&lt;/sub&gt;&lt;/font&gt;" style="text;html=1;strokeColor=none;fillColor=none;align=center;verticalAlign=middle;whiteSpace=wrap;rounded=0;" parent="gyXMwO3ofP4Fgjw1sUbA-225" vertex="1">
          <mxGeometry y="274" width="30" height="30" as="geometry" />
        </mxCell>
        <mxCell id="gyXMwO3ofP4Fgjw1sUbA-221" value="" style="edgeStyle=orthogonalEdgeStyle;rounded=0;orthogonalLoop=1;jettySize=auto;html=1;" parent="gyXMwO3ofP4Fgjw1sUbA-225" source="gyXMwO3ofP4Fgjw1sUbA-216" target="gyXMwO3ofP4Fgjw1sUbA-204" edge="1">
          <mxGeometry relative="1" as="geometry" />
        </mxCell>
        <mxCell id="gyXMwO3ofP4Fgjw1sUbA-216" value="&lt;font face=&quot;Times New Roman&quot; style=&quot;font-size: 24px;&quot;&gt;&lt;i&gt;x&lt;/i&gt;&lt;sub&gt;1&lt;/sub&gt;&lt;/font&gt;" style="text;html=1;strokeColor=none;fillColor=none;align=center;verticalAlign=middle;whiteSpace=wrap;rounded=0;" parent="gyXMwO3ofP4Fgjw1sUbA-225" vertex="1">
          <mxGeometry y="147" width="30" height="30" as="geometry" />
        </mxCell>
        <mxCell id="gyXMwO3ofP4Fgjw1sUbA-224" value="" style="edgeStyle=orthogonalEdgeStyle;rounded=0;orthogonalLoop=1;jettySize=auto;html=1;" parent="gyXMwO3ofP4Fgjw1sUbA-225" source="gyXMwO3ofP4Fgjw1sUbA-219" target="gyXMwO3ofP4Fgjw1sUbA-176" edge="1">
          <mxGeometry relative="1" as="geometry" />
        </mxCell>
        <mxCell id="gyXMwO3ofP4Fgjw1sUbA-219" value="&lt;font face=&quot;Times New Roman&quot; style=&quot;font-size: 24px;&quot;&gt;&lt;i&gt;x&lt;/i&gt;&lt;sub&gt;2&lt;/sub&gt;&lt;/font&gt;" style="text;html=1;strokeColor=none;fillColor=none;align=center;verticalAlign=middle;whiteSpace=wrap;rounded=0;" parent="gyXMwO3ofP4Fgjw1sUbA-225" vertex="1">
          <mxGeometry x="580" y="274" width="30" height="30" as="geometry" />
        </mxCell>
        <mxCell id="gyXMwO3ofP4Fgjw1sUbA-223" value="" style="edgeStyle=orthogonalEdgeStyle;rounded=0;orthogonalLoop=1;jettySize=auto;html=1;" parent="gyXMwO3ofP4Fgjw1sUbA-225" source="gyXMwO3ofP4Fgjw1sUbA-220" target="gyXMwO3ofP4Fgjw1sUbA-179" edge="1">
          <mxGeometry relative="1" as="geometry" />
        </mxCell>
        <mxCell id="gyXMwO3ofP4Fgjw1sUbA-220" value="&lt;font face=&quot;Times New Roman&quot; style=&quot;font-size: 24px;&quot;&gt;&lt;i&gt;x&lt;/i&gt;&lt;sub&gt;1&lt;/sub&gt;&lt;/font&gt;" style="text;html=1;strokeColor=none;fillColor=none;align=center;verticalAlign=middle;whiteSpace=wrap;rounded=0;" parent="gyXMwO3ofP4Fgjw1sUbA-225" vertex="1">
          <mxGeometry x="580" y="147" width="30" height="30" as="geometry" />
        </mxCell>
        <mxCell id="gyXMwO3ofP4Fgjw1sUbA-208" value="" style="rounded=0;orthogonalLoop=1;jettySize=auto;html=1;" parent="gyXMwO3ofP4Fgjw1sUbA-225" source="gyXMwO3ofP4Fgjw1sUbA-167" target="gyXMwO3ofP4Fgjw1sUbA-206" edge="1">
          <mxGeometry relative="1" as="geometry" />
        </mxCell>
      </root>
    </mxGraphModel>
  </diagram>
</mxfile>
